<?xml version="1.0" standalone="no"?>
<!DOCTYPE svg PUBLIC "-//W3C//DTD SVG 20010904//EN"
 "http://www.w3.org/TR/2001/REC-SVG-20010904/DTD/svg10.dtd">
<svg version="1.0" xmlns="http://www.w3.org/2000/svg"
 width="120.000000pt" height="120.000000pt" viewBox="0 0 120.000000 120.000000"
 preserveAspectRatio="xMidYMid meet">
<metadata>
Created by potrace 1.10, written by Peter Selinger 2001-2011
</metadata>
<g transform="translate(0.000000,120.000000) scale(0.100000,-0.100000)"
fill="#000000" stroke="none">
<path d="M510 1127 c-96 -22 -165 -78 -214 -175 -38 -76 -49 -165 -57 -460 -1
-23 -2 -23 -23 -5 -82 69 -143 164 -169 266 -22 85 -12 122 34 115 17 -2 26
-13 34 -38 16 -54 32 -76 70 -100 51 -31 68 -19 18 14 -24 16 -46 41 -53 59
-7 18 -16 42 -21 55 -5 12 -20 28 -34 34 -22 10 -30 8 -53 -9 -25 -19 -27 -26
-25 -88 2 -98 58 -210 146 -292 l64 -59 -17 -50 c-20 -58 -68 -154 -110 -220
-16 -27 -30 -53 -30 -59 0 -15 54 -45 82 -45 14 0 58 11 98 25 92 31 125 31
223 0 98 -31 147 -31 243 0 96 31 128 31 237 -1 97 -28 142 -27 172 5 16 19
15 22 -25 81 -50 74 -107 192 -115 240 -5 32 -3 37 31 60 86 58 164 201 172
316 4 66 3 72 -19 88 -48 33 -89 9 -109 -64 -8 -30 -22 -48 -50 -68 -47 -32
-56 -61 -12 -38 40 21 78 66 91 108 16 48 33 63 60 48 59 -31 -7 -221 -117
-339 -31 -33 -63 -61 -70 -61 -10 0 -12 -9 -7 -32 19 -90 49 -153 122 -266 22
-34 32 -57 26 -63 -17 -17 -77 -12 -176 15 -105 29 -123 29 -217 -6 -75 -28
-148 -26 -249 6 -93 30 -115 28 -242 -14 -58 -20 -112 -20 -123 -1 -3 4 14 36
36 72 101 158 123 237 138 499 11 193 34 265 109 343 53 56 104 79 187 85 240
15 359 -124 368 -427 4 -139 13 -201 28 -201 6 0 8 14 4 33 -3 17 -6 77 -6
132 -3 199 -32 303 -111 389 -30 33 -68 62 -98 75 -62 26 -169 34 -241 18z"/>
<path d="M645 867 c-42 -42 -52 -77 -33 -125 33 -87 133 -106 195 -38 73 80
18 196 -93 196 -28 0 -44 -8 -69 -33z m150 -29 c28 -33 32 -75 10 -104 -8 -10
-15 -16 -15 -11 0 4 -9 -2 -20 -13 -40 -40 -110 -12 -110 44 0 18 5 37 12 44
18 18 68 15 91 -5 19 -17 20 -17 8 5 -6 12 -15 22 -19 23 -51 6 -59 4 -85 -22
-22 -22 -26 -34 -22 -56 6 -25 5 -26 -6 -9 -29 47 1 120 55 134 45 12 73 4
101 -30z"/>
<path d="M376 818 c-21 -30 -20 -54 4 -78 39 -39 100 -14 100 42 0 53 -74 79
-104 36z m62 -30 c20 -20 14 -40 -10 -36 -15 2 -24 11 -26 26 -4 24 16 30 36
10z"/>
<path d="M374 599 c-6 -10 40 -48 73 -60 31 -10 32 -12 26 -59 -3 -26 -3 -72
1 -102 7 -52 9 -54 57 -82 59 -33 100 -31 155 6 40 27 48 57 42 158 l-4 70 32
10 c26 9 87 59 73 60 -59 4 -452 3 -455 -1z m334 -44 c9 -8 1 -198 -9 -217
-28 -53 -130 -61 -177 -14 -23 22 -26 34 -30 125 -4 98 -4 101 19 109 22 9
188 6 197 -3z"/>
<path d="M598 543 c-2 -5 0 -42 3 -83 l5 -75 2 83 c2 74 -1 96 -10 75z"/>
<path d="M538 533 c7 -3 16 -2 19 1 4 3 -2 6 -13 5 -11 0 -14 -3 -6 -6z"/>
</g>
</svg>
