<?xml version="1.0" encoding="UTF-8" standalone="no"?>
<svg
   xmlns:dc="http://purl.org/dc/elements/1.1/"
   xmlns:cc="http://creativecommons.org/ns#"
   xmlns:rdf="http://www.w3.org/1999/02/22-rdf-syntax-ns#"
   xmlns:svg="http://www.w3.org/2000/svg"
   xmlns="http://www.w3.org/2000/svg"
   xmlns:sodipodi="http://sodipodi.sourceforge.net/DTD/sodipodi-0.dtd"
   xmlns:inkscape="http://www.inkscape.org/namespaces/inkscape"
   width="184.0267mm"
   height="164.91591mm"
   viewBox="0 0 184.02671 164.91591"
   version="1.1"
   id="svg10208"
   sodipodi:docname="Scary-Jack-o-Lantern.svg"
   inkscape:version="0.92.1 r15371">
  <sodipodi:namedview
     pagecolor="#ffffff"
     bordercolor="#666666"
     borderopacity="1"
     objecttolerance="10"
     gridtolerance="10"
     guidetolerance="10"
     inkscape:pageopacity="0"
     inkscape:pageshadow="2"
     inkscape:window-width="1551"
     inkscape:window-height="876"
     id="namedview8929"
     showgrid="false"
     fit-margin-top="0"
     fit-margin-left="0"
     fit-margin-right="0"
     fit-margin-bottom="0"
     inkscape:zoom="0.13386532"
     inkscape:cx="2933.9137"
     inkscape:cy="1933.2254"
     inkscape:window-x="49"
     inkscape:window-y="24"
     inkscape:window-maximized="1"
     inkscape:current-layer="svg10208" />
  <title
     id="title15029">Scary Jack-o'-lantern</title>
  <defs
     id="defs10202" />
  <metadata
     id="metadata10205">
    <rdf:RDF>
      <cc:Work
         rdf:about="">
        <dc:format>image/svg+xml</dc:format>
        <dc:type
           rdf:resource="http://purl.org/dc/dcmitype/StillImage" />
        <dc:title>Scary Jack-o'-lantern</dc:title>
        <dc:date>2017-09-16</dc:date>
        <dc:creator>
          <cc:Agent>
            <dc:title>Urs Roesch</dc:title>
          </cc:Agent>
        </dc:creator>
        <cc:license
           rdf:resource="http://creativecommons.org/publicdomain/zero/1.0/" />
        <dc:publisher>
          <cc:Agent>
            <dc:title>Open Clipart</dc:title>
          </cc:Agent>
        </dc:publisher>
        <dc:subject>
          <rdf:Bag>
            <rdf:li>jack-o-lantern</rdf:li>
            <rdf:li>pumpkin</rdf:li>
            <rdf:li>halloween</rdf:li>
            <rdf:li>october</rdf:li>
            <rdf:li>orange</rdf:li>
            <rdf:li>scary</rdf:li>
          </rdf:Bag>
        </dc:subject>
        <dc:description>Scary Jack-o'-lantern</dc:description>
      </cc:Work>
      <cc:License
         rdf:about="http://creativecommons.org/publicdomain/zero/1.0/">
        <cc:permits
           rdf:resource="http://creativecommons.org/ns#Reproduction" />
        <cc:permits
           rdf:resource="http://creativecommons.org/ns#Distribution" />
        <cc:permits
           rdf:resource="http://creativecommons.org/ns#DerivativeWorks" />
      </cc:License>
    </rdf:RDF>
  </metadata>
  <path
     inkscape:connector-curvature="0"
     style="fill:#ff6a07;fill-opacity:1;fill-rule:evenodd;stroke:#ff6600;stroke-width:0.07440253px;stroke-linecap:butt;stroke-linejoin:miter;stroke-opacity:1"
     d="m 100.8459,0.03844254 z m 0,0 v 0.003 c -0.23544,0.003 -0.47088,0.01 -0.70594,0.0245 -0.0375,0.003 -0.075,0.005 -0.11246,0.008 h -0.0152 c -0.220075,0.016 -0.439845,0.0379 -0.658935,0.0656 -0.0235,0.003 -0.0469,0.006 -0.0704,0.009 -0.1047,0.0139 -0.20932,0.0284 -0.31372,0.045 -1.11845,0.17788 -2.20724,0.50869 -3.22029,0.99890996 -0.0469,0.0226 -0.0941,0.0445 -0.14073,0.0678 -0.024,0.0119 -0.0476,0.0247 -0.0715,0.0369 -0.009,0.005 -0.0181,0.009 -0.0267,0.0139 -0.0929,0.0477 -0.18497,0.0969 -0.27638,0.14733 -0.006,0.003 -0.0127,0.007 -0.0194,0.0106 -0.0973,0.054 -0.19388,0.10928 -0.28952,0.16624 -1.14464,0.68297 -2.02403,1.47662 -2.84551,2.47103 0,0 0,0.003 -0.003,0.003 l -0.0738,0.0918 -0.003,0.008 c -0.66884,0.9029 -0.78944,1.95134 -0.91074,2.86861 -0.9937,3.5569705 -2.42986,7.2702005 -3.92647,10.1762305 -1.1461,2.17129 -2.48555,4.23889 -4.13895,6.01179 -0.0888,0.0952 -0.1789,0.18925 -0.26978,0.2825 0.51099,0.0777 1.02128,0.1591 1.53095,0.24411 1.60785,-1.79999 2.90674,-3.83709 4.01574,-5.93797 1.56391,-2.96259 2.80242,-6.08084 3.80272,-9.2598305 0.0117,-0.0366 0.0212,-0.073 0.0319,-0.10953 0.25319,-0.3335 0.392,-0.65447 0.53626,-0.86478 0.97111,-1.41591 2.08887,-2.72235 3.41365,-3.75546 0.32286,-0.25174 0.65885,-0.48607 1.00568,-0.7008 -0.65348,2.76142 -2.74757,11.5575205 -9.45111,21.2411005 0.0662,0.0131 0.13243,0.0264 0.19865,0.0396 6.60751,-7.97248 8.05942,-11.7481 10.46784,-21.9268905 0.47166,-0.21011 0.95798,-0.38109 1.45522,-0.5056 0.725595,-0.18172 1.476405,-0.26627 2.227205,-0.25701 0.45046,0.006 0.90091,0.0449 1.3459,0.11718 -0.58403,5.32 -5.467245,13.3060705 -6.189545,23.2255705 0.0406,-0.003 0.0812,-0.004 0.12183,-0.007 1.86886,-9.40106 6.417005,-19.3090805 7.831505,-22.7718805 0.91496,0.31155 1.8005,0.73486 2.64617,1.23071 0.29866,0.54652 0.41726,1.22419 0.42172,1.91997 0.007,1.11733 -0.20625,2.25577 -0.47695,3.40182 -0.59341,2.5122005 -1.47365,5.0172805 -1.92464,7.6830005 -0.14357,0.84846 -0.30511,1.76008 -0.24151,2.72173 0.0413,0.62592 0.30627,1.14135 0.55692,1.56453 0.5434,0.91771 1.20702,1.70295 1.81057,2.47344 0.38461,0.49103 0.76386,0.95345 1.07373,1.42515 0.4967,0 0.99339,10e-6 1.49017,0.005 -0.0227,-0.0441 -0.0452,-0.0872 -0.0672,-0.12858 -0.42756,-0.80467 -0.98855,-1.46361 -1.4834,-2.0952 -0.62183,-0.79379 -1.24473,-1.53906 -1.71646,-2.33569 -0.21217,-0.35828 -0.36035,-0.69764 -0.37994,-0.99352 -0.0502,-0.75944 0.0825,-1.57205 0.2263,-2.42182 0.4268,-2.52253 1.29329,-5.00217 1.90751,-7.6024205 0.2793,-1.18229 0.52012,-2.4202 0.51206,-3.7052 -0.005,-0.77965 -0.12237,-1.61625 -0.50192,-2.38086 0,-0.0102 0.005,-0.0448 0.005,-0.0449 0,0 -0.0532,-0.17347 -0.0532,-0.17359 0,0 -0.062,-0.10548 -0.0811,-0.12917 -0.076,-0.0947 -0.0845,-0.088 -0.10101,-0.10158 -0.0281,-0.0232 -0.0444,-0.0348 -0.0639,-0.0489 -1.1216,-1.60290996 -3.25179,-1.85744996 -4.78044,-2.20906996 -0.004,0 -0.007,-0.003 -0.0102,-0.003 -0.0692,-0.0157 -0.13835,-0.0312 -0.20779,-0.0459 -0.0519,-0.011 -0.10409,-0.0212 -0.15617,-0.0317 -0.0737,-0.0145 -0.14749,-0.029 -0.22146,-0.0423 -0.0814,-0.0148 -0.16277,-0.029 -0.24443,-0.0423 -0.0194,-0.003 -0.039,-0.007 -0.0586,-0.01 -0.11737,-0.0186 -0.23513,-0.0352 -0.35305,-0.0506 -0.009,0 -0.0186,-0.003 -0.0279,-0.004 -0.58004,-0.0744 -1.16554,-0.11068 -1.75103,-0.10652 z m 6.66729,3.40977996 c -6.76054,10.1074305 -6.22659,17.7557505 -4.99968,21.4064305 -0.22669,0.008 -0.45329,0.0148 -0.67982,0.0233 -3.188415,0.11602 -6.374225,0.30425 -9.555045,0.55182 -0.0661,-0.016 -0.13228,-0.0315 -0.19842,-0.0474 4.2508,-6.12222 6.22913,-10.97102 7.15269,-19.9754305 -1.53579,8.4902905 -5.38422,15.4441705 -8.22266,19.7232205 -2.02465,-0.4669 -4.06436,-0.87905 -6.11505,-1.23296 5.77737,-5.57904 7.19209,-10.06624 8.23572,-16.5934005 -1.56344,5.0290905 -3.44691,10.8810205 -8.45595,16.5551405 -5.5907,-0.95312 -11.2613,-1.47232 -16.92843,-1.48457 -5.6487,-0.0122 -11.29394,0.47932 -16.85268,1.54683 -10.50665,2.01774 -20.70834,6.21647 -29.11882,12.91148 -18.7818502,16.0973 -23.7980402,44.3757 -21.03011018,66.791737 1.26823998,8.7601 4.41770998,17.24732 9.25845018,24.66949 5.72099,8.77182 13.59314,16.01426 22.39169,21.60268 2.37801,1.51038 4.74841,3.0392 7.21022,4.41033 10.58086,5.89324 22.5315,9.03818 34.54674,10.11577 14.91223,1.33738 30.032385,-0.31415 44.433165,-4.33308 12.01648,-3.35351 23.56544,-8.44467 34.04774,-15.21295 8.5403,-5.51438 16.35706,-12.37979 22.06353,-20.85882 4.63503,-6.88697 7.62081,-14.85282 8.73127,-23.08019 1.3525,-10.019457 0.19088,-20.284477 -2.71209,-29.913707 -3.74096,-12.42687 -12.28049,-26.17325 -21.39054,-33.45011 -6.86147,-5.22295 -15.0836,-8.38045 -23.4506,-10.22004 -9.68533,-2.1294 -19.63075,-2.7391 -29.53209,-2.59211 -6.800625,-7.32287 1.26947,-18.0468205 1.17077,-21.3134105 z M 58.023885,24.779643 c 3.26455,0.007 5.40642,0.73604 6.23911,1.35569 -7.23634,2.14339 -12.34263,-4.55901 -38.81305,14.81642 14.49765,-13.17431 25.8893,-16.18654 32.57394,-16.17211 z m 50.567115,0.58692 c 5.77129,-0.005 15.32856,2.55147 25.61636,9.06705 3.7786,2.85542 7.45089,5.90962 10.47293,9.54249 19.86596,23.88091 27.86271,61.931397 -3.83676,103.695907 39.41491,-57.313267 9.66828,-91.522307 -6.63617,-113.238397 -18.7608,-9.32749 -32.09568,-9.18902 -29.95227,-4.03496 -2.90128,-3.03033 -0.75641,-5.02803 4.33591,-5.03209 z m -28.697545,0.0878 c 4.72091,0.0102 7.12219,1.77702 6.39259,3.46979 -4.02511,-1.10226 -3.55092,-8.43791 -36.78133,11.09653 13.09382,-11.29523 23.91933,-14.58027 30.38874,-14.56632 z m 12.28587,2.32235 c 2.28322,0.0197 3.79972,0.76312 3.98316,2.02543 -3.70708,-0.0159 -8.47969,-4.13688 -24.15485,10.52896 -5.30026,9.02657 -9.38383,19.91042 -11.74301,32.20979 l 13.48889,13.00974 c -2.17199,3.49411 -11.44926,6.87841 -15.72709,8.28778 -0.29651,12.396007 1.04432,25.753097 4.39697,39.745157 l 3.72859,5.1215 c 4.49046,-5.08687 10.05489,-12.29214 10.05489,-12.29214 l 9.87645,16.43347 8.49006,-13.21768 10.956325,10.58071 2.2349,-11.49215 c 0.7243,-0.2345 1.44584,-0.47986 2.16422,-0.73651 l 7.98108,7.05631 c 4.94967,-15.92827 6.71291,-29.51686 6.5698,-41.101297 -4.12197,-1.34272 -13.79984,-4.80476 -16.02552,-8.38515 l 13.40639,-12.93007 c -3.85796,-15.93633 -10.93229,-26.27886 -14.03613,-32.9103 7.96801,9.94665 12.97199,20.49202 15.69098,31.31411 l 10.74348,-10.36182 c 5.30878,9.75903 -7.88975,33.86615 -7.88975,33.86615 0,0 -0.19672,-0.06 -0.27799,-0.0843 -0.24067,13.771877 -3.28329,27.617357 -7.81661,40.915097 l 2.62358,2.31966 2.07536,-15.30869 5.86301,6.94185 6.35264,-17.04711 c 0.14926,-0.14882 0.29813,-0.29845 0.44615,-0.44905 l 5.40811,5.72328 10.53791,-25.640487 -7.9833,34.518337 -8.84265,-0.88338 -2.01459,14.76541 c -0.14318,0.12713 -0.28767,0.25277 -0.43224,0.37807 l -5.88023,-7.09576 -5.23173,14.37758 c -0.0793,0.0385 -0.15901,0.0763 -0.2386,0.11447 l -9.52178,-9.26043 -4.379,13.91563 c -0.37939,0.0793 -0.75987,0.15589 -1.14126,0.2288 l -11.147975,-11.88405 -5.24618,13.0861 c -0.29874,-0.0113 -0.59733,-0.0244 -0.89599,-0.0392 l -12.60934,-14.56331 -7.54123,14.0121 -11.5631,-18.93045 -5.63426,7.33087 -6.13487,-12.87666 -2.75894,5.11039 -10.41293,-25.54852 3.52634,8.08538 6.41494,12.15846 3.37447,-6.72955 c 2.00499,4.3177 6.03101,12.92362 6.03101,12.92362 2.82393,-1.99138 7.73296,-6.14187 7.73296,-6.14187 l 1.45936,2.00458 c -3.23136,-12.07285 -5.04407,-24.68343 -4.98316,-37.013967 -1.88769,-3.58407 -12.42199,-24.37486 -7.57825,-33.27908 l 10.19316,9.83101 c 2.5457,-11.01523 7.038,-21.30179 13.86568,-30.16246 6.41425,-9.13905 15.14851,-12.59783 20.17169,-12.55439 z m 40.791135,0.73531 c 3.69672,0.0178 10.6019,3.03843 22.96374,13.06059 13.81636,9.21435 43.76956,49.73746 0.33477,95.235897 25.6441,-35.70338 29.37207,-64.743627 -0.33477,-95.235897 -16.07246,-10.83982 -18.28477,-10.20413 -25.52103,-12.34749 0.59479,-0.44261 1.42563,-0.71855 2.55729,-0.7131 z M 21.725275,43.124553 c -6.68258,12.00781 -30.8423502,40.42587 5.77905,100.822787 C -0.14391518,107.00242 -0.42060518,68.650673 21.725275,43.124553 Z m 21.41658,0.62068 C 11.374105,75.779743 31.205115,124.6255 42.402955,151.39658 9.8165748,87.565233 24.043895,58.012103 43.141855,43.745233 Z"
     id="path8823-4" />
</svg>
