<?xml version="1.0" standalone="no"?>
<!DOCTYPE svg PUBLIC "-//W3C//DTD SVG 20010904//EN"
 "http://www.w3.org/TR/2001/REC-SVG-20010904/DTD/svg10.dtd">
<svg version="1.0" xmlns="http://www.w3.org/2000/svg"
 width="160.000000pt" height="160.000000pt" viewBox="0 0 160.000000 160.000000"
 preserveAspectRatio="xMidYMid meet">
<metadata>
Created by potrace 1.10, written by Peter Selinger 2001-2011
</metadata>
<g transform="translate(0.000000,160.000000) scale(0.100000,-0.100000)"
fill="#000000" stroke="none">
<path d="M681 1515 c-120 -34 -191 -81 -237 -160 -21 -36 -31 -62 -60 -155 -4
-10 -7 -11 -12 -3 -4 6 -42 26 -85 44 l-78 32 6 62 c4 37 3 65 -3 69 -5 3 -28
-12 -51 -33 l-41 -38 0 -119 c0 -198 37 -365 111 -504 35 -66 163 -226 225
-280 22 -19 64 -55 92 -79 39 -33 51 -49 46 -63 -4 -13 4 -28 25 -47 30 -29
31 -31 31 -125 l0 -97 -127 3 -126 3 -11 32 c-16 46 -22 47 -18 3 l4 -39 -49
-4 c-26 -2 42 -4 152 -5 l200 -2 -3 108 c-3 97 -1 110 16 126 19 17 21 15 63
-61 76 -138 77 -138 144 8 l31 66 26 -21 c23 -19 26 -30 32 -120 7 -87 6 -98
-8 -93 -9 4 -16 2 -16 -3 0 -7 394 -20 417 -14 1 0 -6 37 -17 82 -24 101 -48
150 -94 189 -35 31 -130 73 -166 73 -11 0 -20 5 -20 10 0 6 3 10 8 10 17 0
121 101 193 188 167 201 224 389 220 716 -1 56 -3 61 -42 98 -22 21 -45 36
-51 32 -6 -4 -8 -29 -3 -68 l6 -62 -70 -39 c-39 -22 -71 -46 -71 -52 0 -33
-17 -6 -37 61 -57 187 -179 273 -398 282 -70 3 -116 -1 -154 -11z m301 -35
c35 -12 80 -32 100 -46 85 -55 158 -226 177 -414 6 -58 16 -141 22 -185 6 -44
10 -101 8 -127 -2 -27 -1 -48 3 -48 6 0 23 39 21 50 0 3 -6 61 -12 130 -7 69
-19 167 -28 218 -8 51 -14 94 -12 95 3 2 92 46 131 65 3 2 8 -5 11 -15 3 -11
5 -6 6 12 1 17 6 37 11 45 13 21 13 -140 0 -250 -32 -257 -131 -443 -334 -624
-55 -50 -80 -66 -88 -58 -6 6 -16 8 -23 6 -11 -5 -11 4 11 123 2 12 12 24 22
27 9 3 32 20 50 37 39 36 62 32 62 -11 0 -16 4 -30 8 -30 15 0 121 117 132
145 5 14 10 38 9 53 0 21 -4 16 -17 -23 -9 -29 -34 -67 -59 -93 -36 -38 -45
-43 -58 -32 -18 15 -19 43 -4 71 29 54 14 609 -18 676 -8 19 -17 32 -19 31 -1
-2 4 -30 12 -63 23 -101 23 -101 -45 -97 l-60 4 -6 46 c-11 89 -16 112 -23
112 -8 0 -6 -119 2 -127 3 -4 6 -18 6 -33 0 -26 1 -26 64 -22 l64 4 6 -68 c4
-38 8 -86 10 -107 l4 -39 -21 20 c-30 29 -75 44 -107 37 -44 -10 -110 -89
-110 -133 0 -50 95 -86 160 -60 34 14 33 14 -31 10 -58 -4 -69 -1 -94 20 -27
24 -28 27 -15 57 7 18 25 45 40 61 23 24 36 30 70 30 35 0 48 -6 74 -33 l31
-33 -3 -141 -3 -141 -51 -51 c-69 -69 -162 -115 -237 -115 -31 -1 -73 3 -93 7
-24 5 -38 4 -38 -2 0 -15 107 -34 154 -27 23 4 54 13 69 21 14 7 29 11 31 7
14 -23 -7 -101 -53 -202 -29 -63 -55 -123 -58 -132 -3 -10 -9 -18 -14 -18 -20
0 -162 273 -155 298 18 68 18 68 -33 100 -27 16 -67 53 -90 82 l-41 52 0 135
0 135 31 29 c36 33 90 39 127 13 29 -20 65 -90 57 -113 -9 -28 -58 -44 -120
-39 -40 3 -53 2 -45 -6 6 -6 37 -11 70 -11 48 0 63 5 84 24 33 31 33 57 -1
109 -49 75 -119 89 -182 36 l-29 -24 4 37 c2 21 6 69 10 107 l6 68 64 -4 64
-4 0 28 c0 15 5 28 10 28 6 0 10 -13 10 -29 l0 -28 120 -5 c158 -7 170 -4 169
36 0 28 -1 29 -9 9 -9 -22 -14 -22 -119 -20 -60 1 -107 5 -105 8 2 3 -7 4 -19
2 -18 -4 -25 2 -36 32 -13 37 -7 115 10 115 5 0 9 4 9 10 0 5 -7 7 -14 4 -9
-3 -20 -30 -26 -62 -19 -97 -22 -102 -80 -101 -27 1 -50 4 -50 6 0 3 7 32 15
64 19 70 46 121 94 172 40 42 33 49 -13 13 -71 -54 -109 -171 -126 -389 -15
-199 -13 -336 7 -396 13 -40 14 -57 5 -76 -6 -14 -16 -25 -21 -25 -20 0 -87
92 -103 143 -15 46 -17 48 -17 20 -1 -17 4 -44 10 -60 10 -28 116 -143 131
-143 4 0 8 15 8 34 0 46 27 57 53 21 11 -14 36 -37 56 -51 33 -22 36 -29 36
-72 1 -26 5 -56 10 -66 7 -16 5 -18 -8 -13 -8 3 -21 -1 -27 -8 -10 -12 -26 -2
-97 62 -244 221 -343 453 -343 796 0 128 19 113 22 -18 l2 -90 3 73 c3 48 8
72 16 72 7 -1 37 -11 67 -24 30 -14 58 -22 62 -20 11 7 10 -26 -3 -106 l-12
-69 -25 19 c-42 33 -82 20 -82 -27 0 -31 39 -135 58 -153 13 -13 14 -13 7 5
-52 137 -57 175 -26 175 10 0 29 -8 41 -18 22 -18 22 -19 10 -151 -10 -119 -8
-212 6 -198 3 3 7 42 9 88 3 79 29 317 41 384 10 55 57 179 87 228 81 134 314
192 509 127z m-806 -308 c1 -109 7 -194 18 -246 8 -44 14 -81 12 -83 -5 -5
-20 49 -17 61 1 4 -2 13 -8 20 -28 35 -49 368 -25 407 15 25 19 -5 20 -159z
m1297 117 c16 -89 -22 -403 -54 -433 -8 -8 -10 -6 -5 11 22 71 39 270 34 379
-4 66 -2 94 6 91 6 -2 14 -23 19 -48z m-302 -988 c95 -39 131 -85 158 -196 7
-27 14 -58 17 -68 5 -16 0 -18 -38 -15 -48 3 -50 8 -34 96 5 26 4 42 -2 42 -6
0 -13 -24 -17 -52 -12 -94 -2 -88 -129 -88 l-113 0 -7 53 c-11 99 -7 146 16
177 17 23 19 32 9 44 -9 11 -7 18 15 35 17 13 31 18 38 12 6 -5 45 -23 87 -40z
m-500 9 c43 -24 9 -82 -36 -62 -29 13 -31 28 -8 54 19 21 19 21 44 8z m333 -9
c29 -32 -5 -72 -45 -51 -24 13 -25 46 -1 59 23 14 27 14 46 -8z"/>
<path d="M598 1432 c-80 -46 -122 -122 -147 -266 -12 -67 -13 -287 -2 -416 6
-66 8 -35 10 145 2 356 32 452 171 547 39 26 20 21 -32 -10z"/>
<path d="M1061 1350 c13 -16 25 -28 27 -25 7 7 -27 55 -39 55 -5 0 0 -13 12
-30z"/>
<path d="M1402 1160 c0 -14 2 -19 5 -12 2 6 2 18 0 25 -3 6 -5 1 -5 -13z"/>
<path d="M553 1045 c-18 -8 -33 -19 -33 -25 0 -6 11 -5 30 5 34 17 68 19 104
5 34 -12 34 3 1 18 -34 15 -62 15 -102 -3z"/>
<path d="M973 1050 c-33 -13 -30 -32 3 -20 36 14 70 12 104 -5 19 -10 30 -11
30 -5 0 14 -62 40 -92 39 -13 0 -33 -4 -45 -9z"/>
<path d="M1310 1020 c-26 -26 -18 -41 8 -17 25 23 62 22 62 0 0 -16 -34 -117
-55 -168 -8 -18 -7 -18 8 -6 23 19 67 160 57 186 -10 29 -54 31 -80 5z"/>
<path d="M570 930 c-11 -11 -20 -33 -20 -50 0 -65 79 -94 119 -44 27 35 26 59
-4 89 -29 30 -68 32 -95 5z m43 -15 c1 -5 -6 -11 -15 -13 -11 -2 -18 3 -18 13
0 17 30 18 33 0z m57 -40 c0 -28 -19 -45 -50 -45 -29 0 -50 17 -50 40 1 12 2
12 11 -2 13 -23 65 -24 73 -2 4 9 4 26 1 38 -5 17 -4 18 4 6 6 -8 11 -24 11
-35z"/>
<path d="M977 938 c-55 -43 -26 -128 44 -128 37 0 72 44 64 80 -12 50 -70 76
-108 48z m36 -23 c1 -5 -6 -11 -15 -13 -11 -2 -18 3 -18 13 0 17 30 18 33 0z
m57 -40 c0 -28 -19 -45 -50 -45 -29 0 -50 17 -50 40 1 12 2 12 11 -2 13 -23
65 -24 73 -2 4 9 4 26 1 38 -5 17 -4 18 4 6 6 -8 11 -24 11 -35z"/>
<path d="M761 703 c-2 -42 72 -59 104 -23 10 11 15 23 11 27 -4 5 -12 0 -17
-10 -15 -26 -73 -23 -87 6 l-11 22 0 -22z"/>
<path d="M695 593 c4 -10 9 -34 11 -53 6 -46 27 -68 48 -50 9 7 16 19 16 26 0
10 13 14 45 14 25 0 45 -4 45 -10 0 -5 -4 -10 -10 -10 -5 0 -10 -5 -10 -11 0
-6 6 -9 14 -6 7 3 18 1 24 -5 18 -18 42 10 42 46 0 18 5 37 12 44 21 21 -2 27
-124 30 -113 3 -120 2 -113 -15z m57 -48 c-6 -64 -20 -62 -32 5 -7 38 -6 41
14 38 18 -3 21 -9 18 -43z m163 28 c-12 -61 -16 -73 -24 -73 -9 0 -21 70 -14
83 2 4 12 7 23 7 12 0 17 -6 15 -17z m-55 -13 c0 -5 -18 -10 -39 -10 -22 0
-43 5 -46 10 -4 6 12 10 39 10 25 0 46 -4 46 -10z"/>
<path d="M786 357 c-21 -56 -20 -71 3 -28 l19 35 15 -30 c26 -51 40 -57 71
-33 15 12 25 24 22 27 -3 3 -15 -3 -27 -14 -20 -18 -21 -18 -35 1 -8 10 -20
34 -26 52 -7 18 -15 33 -19 33 -3 0 -14 -19 -23 -43z"/>
<path d="M715 317 c7 -16 45 -40 45 -28 0 5 -11 16 -25 25 -16 11 -23 12 -20
3z"/>
<path d="M637 294 c-13 -13 -7 -24 14 -24 11 0 19 5 17 12 -5 14 -22 21 -31
12z"/>
<path d="M967 293 c-13 -12 -7 -23 13 -23 13 0 18 5 14 15 -7 16 -17 19 -27 8z"/>
<path d="M442 327 c-71 -30 -116 -67 -141 -119 -21 -44 -63 -199 -56 -206 10
-10 23 11 30 45 11 63 45 155 66 182 28 35 83 68 147 86 53 16 70 35 30 35
-13 -1 -47 -11 -76 -23z"/>
<path d="M357 164 c-7 -8 4 -44 14 -44 12 0 12 37 0 44 -4 3 -11 3 -14 0z"/>
<path d="M690 20 c0 -5 5 -10 11 -10 5 0 7 5 4 10 -3 6 -8 10 -11 10 -2 0 -4
-4 -4 -10z"/>
<path d="M783 13 c32 -2 81 -2 110 0 29 2 3 3 -58 3 -60 0 -84 -1 -52 -3z"/>
</g>
</svg>
